<svg fill="#ffffff" xmlns="http://www.w3.org/2000/svg"  viewBox="0 0 16 16" width="50px" height="50px"><path fill="none" stroke="#ffffff" stroke-miterlimit="10" d="M12.245,13.5H2.755c-0.693,0-1.255-0.561-1.255-1.255V2.755C1.5,2.061,2.061,1.5,2.755,1.5h9.491c0.693,0,1.255,0.561,1.255,1.255v9.491C13.5,12.939,12.939,13.5,12.245,13.5z"/><path d="M3 6H5V12H3zM4 3A1 1 0 1 0 4 5 1 1 0 1 0 4 3zM12 12h-2V9.375c0-.74.064-1.631-.922-1.631C8.077 7.744 8 8.489 8 9.321V12H6V6h2v.875h.026C8.283 6.374 8.756 6 9.692 6 11.64 6 12 7.321 12 9.038V12z"/></svg>