<svg fill="#ffffff" xmlns="http://www.w3.org/2000/svg"  viewBox="0 0 16 16" width="50px" height="50px"><path fill="none" stroke="#ffffff" stroke-miterlimit="10" d="M1.5 3.311v7.571c0 .379.214.725.553.894l3.275 1.637C5.866 13.683 6.5 13.292 6.5 12.689V4.871c0-.227-.128-.435-.332-.537L2.672 2.586C2.134 2.317 1.5 2.708 1.5 3.311zM9.625 11.5L6.5 4.75"/><path fill="none" stroke="#ffffff" stroke-miterlimit="10" d="M6.5 10l6.828 3.414c.539.269 1.172-.122 1.172-.724V4.945c0-.273-.154-.522-.398-.644L10.57 2.587c-.395-.192-.872-.055-1.105.318L7.306 6.342M10.125 12L14.5 5"/></svg>