<svg fill="#ffffff" xmlns="http://www.w3.org/2000/svg"  viewBox="0 0 48 48" width="50px" height="50px"><path fill="none" stroke="#ffffff" stroke-linejoin="round" stroke-miterlimit="10" stroke-width="3" d="M23.857,10 c-6.278,0-12.176,0.469-15.316,1.125c-2.093,0.469-3.9,1.875-4.281,4.031C3.881,17.406,3.5,20.281,3.5,24.5s0.381,7,0.856,9.344 c0.381,2.063,2.188,3.563,4.281,4.031C11.966,38.531,17.674,39,23.952,39s11.986-0.469,15.316-1.125 c2.093-0.469,3.9-1.875,4.281-4.031c0.381-2.344,0.856-5.219,0.951-9.438c0-4.219-0.476-7.094-0.951-9.438 c-0.381-2.063-2.188-3.563-4.281-4.031C35.939,10.469,30.136,10,23.857,10L23.857,10z"/><path fill="none" stroke="#ffffff" stroke-linejoin="round" stroke-miterlimit="10" stroke-width="3" d="M21.5,30.236l7.99-4.514 c1.347-0.761,1.347-2.682,0-3.443l-7.99-4.514c-1.337-0.755-3,0.199-3,1.721v9.029C18.5,30.037,20.163,30.991,21.5,30.236z"/></svg>